Coordinates
version=1
nRows=29
nColumns=24
inDegrees=yes

Units are S.I. units (second, meters, Newtons, ...)
Angles are in degrees.

endheader
time	pelvis_tilt	pelvis_list	pelvis_rotation	pelvis_tx	pelvis_ty	pelvis_tz	hip_flexion_r	hip_adduction_r	hip_rotation_r	knee_angle_r	ankle_angle_r	subtalar_angle_r	mtp_angle_r	hip_flexion_l	hip_adduction_l	hip_rotation_l	knee_angle_l	ankle_angle_l	subtalar_angle_l	mtp_angle_l	lumbar_extension	lumbar_bending	lumbar_rotation
      3.35500000	     -7.55392302	      7.88253507	      2.36420088	     -0.75360662	     -0.01600206	      0.61673230	     38.84159910	    -11.69273833	     -1.93574163	    -60.30965687	    -16.49672424	    -18.18053955	     20.34174197	      3.86521499	     12.37203913	     14.61321274	    -14.05959459	     14.43862116	    -11.41030850	    -22.83913506	      5.83979411	     -8.78802117	     -8.72878300
      3.36000000	     -7.62367785	      7.75907788	      2.35442277	     -0.74719910	     -0.01643929	      0.61663826	     39.25442546	    -11.41536314	     -1.77483587	    -59.13222947	    -16.20722577	    -18.07367660	     20.17828807	      3.35616747	     12.19839671	     14.75264083	    -13.73639337	     14.60706180	    -11.38531398	    -22.80884398	      5.87627698	     -8.59038917	     -8.79395113
      3.36500000	     -7.42396565	      7.61306320	      2.34036739	     -0.74081143	     -0.01661053	      0.61657008	     39.31339467	    -11.12859243	     -1.65395301	    -57.89557044	    -15.72302875	    -17.77161762	     19.68547160	      2.55267979	     11.97718975	     14.80903843	    -13.39566934	     14.80123641	    -11.25990907	    -22.73260163	      5.60091532	     -8.36128403	     -8.98209252
      3.37000000	     -7.49960186	      7.50481496	      2.31773910	     -0.73438486	     -0.01716430	      0.61651341	     39.67692416	    -10.85208282	     -1.43508996	    -56.62824505	    -15.42775451	    -17.62548208	     19.53929399	      2.05913564	     11.81033942	     14.89109691	    -13.08514296	     14.96343754	    -11.19513562	    -22.65360517	      5.64152791	     -8.17389559	     -9.05118822
      3.37500000	     -7.29888309	      7.39356085	      2.26022106	     -0.72796439	     -0.01746395	      0.61653912	     39.69283086	    -10.56885911	     -1.22621563	    -55.31419734	    -14.93361882	    -17.27549199	     19.11745808	      1.26808102	     11.60744322	     14.78824403	    -12.75514324	     15.16630333	    -10.93613992	    -22.44589882	      5.37370116	     -7.97521019	     -9.17528278
      3.38000000	     -7.22733423	      7.28852499	      2.19527840	     -0.72150195	     -0.01795625	      0.61656266	     39.83265958	    -10.27983492	     -0.97465136	    -53.96739377	    -14.51644836	    -17.00758056	     18.71185835	      0.62459879	     11.41724646	     14.68267145	    -12.44542523	     15.33915411	    -10.68090215	    -22.16100873	      5.25438460	     -7.77653577	     -9.25367032
      3.38500000	     -7.30834274	      7.20823076	      2.15817349	     -0.71503257	     -0.01866783	      0.61653433	     40.11976935	    -10.02795336	     -0.68425520	    -52.58453594	    -14.21716150	    -16.82341356	     18.59729571	      0.14474370	     11.26945295	     14.68866126	    -12.15125072	     15.49824261	    -10.52668096	    -22.00769168	      5.30319986	     -7.60700855	     -9.32137275
      3.39000000	     -7.12730524	      7.06910277	      2.07516235	     -0.70853697	     -0.01911454	      0.61672361	     40.07018559	     -9.69578688	     -0.45549764	    -51.16537060	    -13.75211788	    -16.60660280	     17.70215549	     -0.58973079	     11.00537408	     14.31026918	    -11.86718806	     15.62798688	     -9.93509633	    -21.03208346	      5.06120450	     -7.38359543	     -9.38719833
      3.39500000	     -7.13423495	      7.01486425	      1.99990930	     -0.70204324	     -0.01987623	      0.61683581	     40.23275260	     -9.45225144	     -0.10772707	    -49.75020312	    -13.25829967	    -16.21818385	     17.23193644	     -1.11331407	     10.84878534	     13.88939498	    -11.56379259	     15.21358361	     -9.55403074	    -18.66570454	      5.02750319	     -7.24595138	     -9.44500753
      3.40000000	     -7.06393952	      6.94826622	      1.93843058	     -0.69555179	     -0.02052386	      0.61684490	     40.25973093	     -9.23256468	      0.19747789	    -48.24609483	    -12.95193189	    -16.01863845	     17.23017442	     -1.73971041	     10.69669292	     13.70056795	    -11.29628638	     15.41118637	     -9.12661315	    -18.39956591	      4.89903870	     -7.07846102	     -9.51547356
      3.40500000	     -7.15893155	      6.88124113	      1.90065886	     -0.68899399	     -0.02137686	      0.61678444	     40.43953250	     -9.02842927	      0.51138087	    -46.72338642	    -12.65364737	    -15.83000359	     17.16644025	     -2.18399919	     10.56338567	     13.61691993	    -11.05489596	     15.56964178	     -8.83216814	    -18.21257337	      4.96296820	     -6.90792097	     -9.58323335
      3.41000000	     -7.04523102	      6.72592022	      1.81873626	     -0.68240710	     -0.02200400	      0.61700317	     40.34263533	     -8.70642861	      0.74662341	    -45.16592048	    -12.31626988	    -15.78340323	     16.35601414	     -2.78874757	     10.27368449	     12.95076723	    -10.87299856	     15.73060269	     -7.85115516	    -16.86690359	      4.79905542	     -6.65920656	     -9.62052759
      3.41500000	     -7.14546888	      6.70648792	      1.81037692	     -0.67585218	     -0.02292151	      0.61684094	     40.48166124	     -8.59390725	      1.08509279	    -43.61631542	    -11.93228878	    -15.40848181	     16.39167866	     -3.21033575	     10.20040113	     12.86031437	    -10.66438974	     15.81349985	     -7.57428342	    -16.62072306	      4.85623044	     -6.52814366	     -9.72399434
      3.42000000	     -7.00500797	      6.62307831	      1.78098329	     -0.66932147	     -0.02357618	      0.61691757	     40.31485501	     -8.41005672	      1.33051033	    -42.03710437	    -11.54573818	    -15.17744720	     15.97064773	     -3.82160433	      9.99920981	     12.24520295	    -10.53700870	     15.98605146	     -6.58284506	    -15.54271623	      4.63940031	     -6.35007788	     -9.84011244
      3.42500000	     -7.16650812	      6.50624752	      1.78369738	     -0.66259320	     -0.02457331	      0.61695690	     40.44640928	     -8.20252728	      1.57298896	    -40.48053587	    -11.05104034	    -14.86221090	     15.14164176	     -4.11982699	      9.76975047	     11.63712850	    -10.30625153	     15.07374513	     -6.10699824	    -11.47790841	      4.78942980	     -6.13903113	     -9.90183298
      3.43000000	     -7.18936877	      6.41195267	      1.82865144	     -0.65593093	     -0.02538434	      0.61679371	     40.38739310	     -8.08454806	      1.76806636	    -38.86173558	    -10.75659213	    -14.63933956	     15.23539224	     -4.55683467	      9.59657772	     11.36062423	    -10.23121417	     15.29684195	     -5.45015990	    -11.19347353	      4.76414554	     -5.93391012	    -10.05338393
      3.43500000	     -7.26120013	      6.30308168	      1.88954158	     -0.64920656	     -0.02624848	      0.61663187	     40.36185514	     -7.95917339	      1.96461823	    -37.27113234	    -10.44711991	    -14.36957764	     15.12086796	     -4.91768671	      9.40396163	     11.02930884	    -10.19878151	     15.48672911	     -4.70295634	    -10.67502696	      4.80142389	     -5.71140333	    -10.20375677
      3.44000000	     -7.34896088	      6.18848992	      1.98530114	     -0.64242029	     -0.02713297	      0.61643561	     40.32940095	     -7.85814726	      2.12505602	    -35.71119510	    -10.07533559	    -14.01725661	     14.97254903	     -5.24361259	      9.20558642	     10.73077878	    -10.20502751	     15.59748252	     -3.97873130	     -9.97078523	      4.85996064	     -5.48741534	    -10.38338527
      3.44500000	     -7.49827388	      6.04760015	      2.05046910	     -0.63549645	     -0.02810940	      0.61637300	     40.35121538	     -7.69006557	      2.34010605	    -34.20870234	     -9.64979955	    -13.64747328	     14.49069724	     -5.50085657	      8.96019200	     10.25739089	    -10.12996366	     14.94874054	     -3.40745506	     -6.87042038	      5.01173558	     -5.23791315	    -10.49467326
      3.45000000	     -7.60437002	      5.92463629	      2.23000947	     -0.62858512	     -0.02899559	      0.61602913	     40.29573196	     -7.65071890	      2.44099751	    -32.72895747	     -9.30664467	    -13.19311660	     14.66277944	     -5.78893886	      8.76191942	     10.17118082	    -10.21030051	     15.10137637	     -2.78121853	     -6.60267677	      5.10206446	     -5.00312964	    -10.74881299
      3.45500000	     -7.70615369	      5.72899656	      2.34679214	     -0.62150427	     -0.02988080	      0.61586705	     40.21084615	     -7.47490493	      2.61479241	    -31.29336249	     -9.01788144	    -12.83290808	     14.69072794	     -6.05080105	      8.46449358	      9.83258283	    -10.32435314	     15.18119567	     -1.92510942	     -5.69159379	      5.21746697	     -4.68709179	    -10.90125472
      3.46000000	     -7.86389895	      5.60851322	      2.57051586	     -0.61437313	     -0.03081113	      0.61545167	     40.19278556	     -7.47142681	      2.69624819	    -29.98154240	     -8.59461475	    -12.13688939	     14.88391467	     -6.27884025	      8.27236853	      9.86199421	    -10.42851236	     15.18731119	     -1.44935459	     -5.37220907	      5.39322837	     -4.45475788	    -11.19434412
      3.46500000	     -7.94669207	      5.36645527	      2.75732971	     -0.60716608	     -0.03166181	      0.61527819	     40.05415095	     -7.28506915	      2.87042937	    -28.70947751	     -8.31151176	    -11.66296096	     15.01028525	     -6.50567713	      7.90248050	      9.48425326	    -10.62916142	     15.12074999	     -0.48829881	     -3.82250735	      5.50062178	     -4.09641062	    -11.39461766
      3.47000000	     -8.08985343	      5.22799313	      3.04665928	     -0.59992533	     -0.03253832	      0.61477100	     39.99735155	     -7.30317184	      2.95817922	    -27.58865969	     -7.89106119	    -10.78415378	     15.29684667	     -6.70360272	      7.68678593	      9.56575272	    -10.81943805	     15.05956512	     -0.04545228	     -3.45843040	      5.67101154	     -3.84239782	    -11.75205630
      3.47500000	     -8.21100010	      5.02375701	      3.32178154	     -0.59256101	     -0.03337742	      0.61438666	     39.89669660	     -7.23057146	      3.07012938	    -26.55515353	     -7.56069261	     -9.98914559	     15.60760951	     -6.89763891	      7.37876351	      9.54933498	    -11.05799510	     15.06627897	      0.59668583	     -2.99649010	      5.83799737	     -3.52518831	    -12.05195262
      3.48000000	     -8.30909554	      4.79624642	      3.61827068	     -0.58511263	     -0.03419255	      0.61401547	     39.75508616	     -7.13788548	      3.19609128	    -25.62663492	     -7.25296524	     -9.24073645	     15.98108958	     -7.07974517	      7.03623107	      9.48076939	    -11.36015144	     15.05180768	      1.29836535	     -2.39522891	      5.98969316	     -3.18436728	    -12.36008923
      3.48500000	     -8.41209377	      4.54055982	      3.91018506	     -0.57755718	     -0.03497404	      0.61364402	     39.61419007	     -7.01595264	      3.31053197	    -24.81518830	     -7.03130032	     -8.47585297	     16.37593463	     -7.25430442	      6.66212479	      9.44577207	    -11.66182482	     14.97791042	      1.95561897	     -1.78701763	      6.16719309	     -2.80996491	    -12.65297232
      3.49000000	     -8.47565612	      4.20924330	      4.11128467	     -0.56981001	     -0.03569579	      0.61355067	     39.40708232	     -6.73192563	      3.49773721	    -24.05172671	     -7.12838711	     -8.12706235	     17.17588543	     -7.46826577	      6.16921885	      9.11534230	    -11.88440700	     14.44086953	      2.72985603	      0.53821246	      6.33638136	     -2.35834258	    -12.83355602
      3.49500000	     -8.61508608	      3.95640190	      4.43653177	     -0.56204168	     -0.03648032	      0.61309111	     39.31206126	     -6.63994230	      3.55338593	    -23.53761076	     -6.92192121	     -7.26609433	     17.39301199	     -7.60752448	      5.81418675	      9.32263199	    -12.20298824	     14.29976899	      3.13676742	      0.75128761	      6.58660345	     -1.98508317	    -13.14579317
